<svg width="300" height="300" viewBox="0 0 300 300" fill="none" xmlns="http://www.w3.org/2000/svg">
<path fill-rule="evenodd" clip-rule="evenodd" d="M89.7531 46H176.733V46.0292C186.822 46.0292 196.156 51.4495 201.208 60.2212L210.86 77H170.535C163.421 77 156.855 80.7907 153.291 86.9542L122.662 140.039C119.113 146.202 119.113 153.798 122.662 159.961L153.291 213.046C156.841 219.209 163.421 223 170.535 223H210.877L201.208 239.808C196.156 248.594 186.837 254 176.733 254H89.7531C79.6644 254 70.3304 248.58 65.2788 239.808L21.7887 164.185C16.7371 155.413 16.7371 144.587 21.7887 135.815L65.2788 60.1921C70.3304 51.4058 79.6499 46 89.7531 46Z" fill="url(#paint0_linear_5815_10972)"/>
<path fill-rule="evenodd" clip-rule="evenodd" d="M210.876 223L243.797 165.773C249.4 156.025 249.4 144.004 243.797 134.256L210.859 77H231.791V77.0141C238.905 77.0141 245.485 80.8048 249.035 86.9682L279.032 138.944C282.989 145.781 282.989 154.219 279.032 161.07L249.035 213.046C245.471 219.209 238.905 223 231.791 223H210.876Z" fill="url(#paint1_linear_5815_10972)"/>
<path fill-rule="evenodd" clip-rule="evenodd" d="M210.86 77H170.535C163.421 77 156.855 80.7907 153.291 86.9542L122.662 140.039C119.113 146.202 119.113 153.798 122.662 159.961L153.291 213.046C156.841 219.209 163.421 223 170.535 223H210.877L243.798 165.773C249.401 156.025 249.401 144.004 243.798 134.256L210.86 77Z" fill="url(#paint2_linear_5815_10972)"/>
<defs>
<linearGradient id="paint0_linear_5815_10972" x1="114.438" y1="254" x2="114.438" y2="46" gradientUnits="userSpaceOnUse">
<stop stop-color="#4401DF"/>
<stop offset="1" stop-color="#8D5DFE"/>
</linearGradient>
<linearGradient id="paint1_linear_5815_10972" x1="246.429" y1="77" x2="246.429" y2="223" gradientUnits="userSpaceOnUse">
<stop stop-color="#C6AFFE"/>
<stop offset="1" stop-color="#8D5DFE"/>
</linearGradient>
<linearGradient id="paint2_linear_5815_10972" x1="184" y1="77" x2="184" y2="223" gradientUnits="userSpaceOnUse">
<stop stop-color="#AA85FE"/>
<stop offset="1" stop-color="#7134FE"/>
</linearGradient>
</defs>
</svg>
